<svg data-name="Layer 1" xmlns="http://www.w3.org/2000/svg" xmlns:xlink="http://www.w3.org/1999/xlink" viewBox="0 0 961.1 805.5">
  <defs>
    <linearGradient id="a" x1="516.6" y1="776" x2="516.6" y2="47.3" gradientUnits="userSpaceOnUse">
      <stop offset="0" stop-color="gray" stop-opacity=".3"/>
      <stop offset=".5" stop-color="gray" stop-opacity=".1"/>
      <stop offset="1" stop-color="gray" stop-opacity=".1"/>
    </linearGradient>
    <linearGradient id="b" x1="802.2" y1="799.8" x2="802.2" y2="247.7" xlink:href="#a"/>
  </defs>
  <path d="M97 24C61 31 20 42 5 78c-13 32 2 69 13 102a349 349 0 0116 102c0 49-9 101 10 145 22 50 76 79 95 130 8 22 9 45 12 68 9 50 32 98 65 135 23 24 52 45 84 45 24 1 47-10 70-20a714 714 0 0181-29c12-3 24-7 36-6 23 2 42 19 64 27 60 22 121-25 184-30 54-4 108 23 161 12 8-2 16-5 20-12 7-12-1-29 5-41s22-14 32-23c9-10 10-26 5-39s-14-24-24-34a1436 1436 0 01-125-159c-38-57-75-125-64-194 4-24 13-46 17-70s3-51-12-69c-10-11-22-17-35-23C598 40 474-16 347 5c-20 3-41 9-61 9-30 1-59-12-88-8-34 5-67 12-101 18z" fill="#f28b85" opacity=".1"/>
  <path d="M190 171s-42-23-54-57a71 71 0 00-27-36 120 120 0 00-19-10" fill="none" stroke="#535461" stroke-miterlimit="10" stroke-width="2"/>
  <path d="M82 46c4 4 8 22 8 22s-18-4-22-8a10 10 0 0114-14zM115 56c1 5-5 23-5 23S97 65 96 60a10 10 0 0119-4zM151 93c-1 6-16 18-16 18s-4-19-3-24a10 10 0 1119 6zM173 128c-1 5-14 20-14 20s-7-18-6-23a10 10 0 1120 3zM96 95c5-1 21-11 21-11s-16-10-22-9a10 10 0 001 20zM121 135c5-2 17-17 17-17s-18-4-23-2a10 10 0 006 19zM151 170c5 0 19-13 19-13s-17-7-22-6a10 10 0 103 19z" fill="#f28b85"/>
  <path d="M153 309s-42-23-54-57a71 71 0 00-27-36 120 120 0 00-19-10" fill="none" stroke="#535461" stroke-miterlimit="10" stroke-width="2"/>
  <path d="M45 184c4 4 8 22 8 22s-18-4-22-8a10 10 0 0114-14zM78 194c1 5-5 23-5 23s-13-14-14-19a10 10 0 0119-4zM114 231c-1 6-16 18-16 18s-4-19-3-24a10 10 0 1119 6zM136 266c-1 5-14 20-14 20s-7-18-6-23a10 10 0 1120 3zM59 233c5-1 21-11 21-11s-16-10-22-9a10 10 0 001 20zM84 273c5-2 17-16 17-16s-18-5-23-3a10 10 0 106 19zM114 308c5 0 19-13 19-13s-17-7-22-6a10 10 0 103 19z" fill="#f28b85"/>
  <path d="M749 47H284a43 43 0 00-42 43v643a43 43 0 0042 43h465a43 43 0 0042-42V90a43 43 0 00-42-43z" transform="translate(-119 -47)" fill="url(#a)"/>
  <rect x="128.8" y="8.7" width="536.7" height="713.4" rx="20" ry="20" fill="#535461"/>
  <path fill="#f1f1f4" d="M156 76h482v579H156z"/>
  <circle cx="394.9" cy="41.5" r="6.5" fill="#fff"/>
  <circle cx="394.9" cy="687.3" r="19.6" fill="#fff"/>
  <rect x="214.1" y="151.4" width="94" height="94" rx="11.8" ry="11.8" fill="#f28b85"/>
  <rect x="605.6" y="198.6" width="94" height="94" rx="11.8" ry="11.8" transform="rotate(-180 593 222)" fill="#f28b85" opacity=".2"/>
  <rect x="350.1" y="151.4" width="94" height="94" rx="11.8" ry="11.8" fill="#f28b85"/>
  <rect x="214.1" y="317.4" width="94" height="94" rx="11.8" ry="11.8" fill="#f28b85"/>
  <rect x="605.6" y="364.6" width="94" height="94" rx="11.8" ry="11.8" transform="rotate(-180 593 388)" fill="#f28b85" opacity=".2"/>
  <rect x="350.1" y="317.4" width="94" height="94" rx="11.8" ry="11.8" fill="#f28b85" opacity=".2"/>
  <rect x="214.1" y="483.4" width="94" height="94" rx="11.8" ry="11.8" fill="#f28b85"/>
  <rect x="605.6" y="530.6" width="94" height="94" rx="11.8" ry="11.8" transform="rotate(-180 593 554)" fill="#f28b85"/>
  <rect x="350.1" y="483.4" width="94" height="94" rx="11.8" ry="11.8" fill="#f28b85"/>
  <path d="M909 325a8 8 0 00-1-3 17 17 0 00-2-2c-5-5-2-13-4-19s-9-11-15-15a12 12 0 00-3-1 26 26 0 00-4 0 20 20 0 01-7-2l-8-4a4 4 0 00-2 0c-3 0-3 4-7 6-1 1-3 2-3 4 0 3 3 4 5 5l3 1 2 1a27 27 0 00-24 27 27 27 0 003 11l-1 2-6 21-4 1-1 1-4 3c-9-14-17-31-18-44l-2 2v-9h-1l1-1 4-7a20 20 0 002-9c0-12 0-41-8-45-10-6-12 20-18 33-4 10-2 24-1 31l1 1a76 76 0 00-10 4c2 1 4 8 5 13v1a50 50 0 01-6 2l17 38c-4 4-11 11-17 7-8-5-33-2-33-2s-14-38-14-49l-2 1v-11a11 11 0 01-1 1v-1l1-1a20 20 0 003-9c0-11 2-41-7-45-12-4-15 29-15 29l2 30v1h-10c2 1 2 9 2 13v2h-6l18 49s1 12 25 17l29 8c-10 23-43 105-33 125l10-4 6 60a173 173 0 00-6 22c-2 16-18 46 6 72 0 0 17 10 19 22 1 10 19 35 24 43-4 8-17 28-28 33-15 7-3 16 10 14s58-33 58-33 0-21-4-23l-4-8a30 30 0 006-2c19-7 44-21 44-21s0-15-7-21c-4-11-20-21-20-21s-13-31-42-40c0 0-5-7-5-14l3-7 16-36a50 50 0 0010-12v-2l17 3-1-32c-6-66 13-85 13-85s27-33 30-56c2-22-16-23-19-23a24 24 0 011-9 4 4 0 002 1h1a4 4 0 001-1c7-4 13-10 21-12l5-1a14 14 0 008-8 18 18 0 000-11zm-99 352c2 5 23 21 23 21l1 6a204 204 0 01-17 14l-8-16s-11-36-21-40c-2-1-3-3-3-6 7 5 24 17 25 21z" transform="translate(-119 -47)" fill="url(#b)"/>
  <path d="M651 361s-46 106-35 129c0 0 18-8 21-6s29-137 29-137z" fill="#575988"/>
  <path d="M651 361s-46 106-35 129c0 0 18-8 21-6s29-137 29-137z" opacity=".1"/>
  <path d="M676 698s-16 30-30 36-2 16 11 14 56-33 56-33 0-21-4-22-33 5-33 5zM717 651s-22 22-32 24 8 15 26 8 42-21 42-21 1-21-11-22-25 11-25 11z" fill="#575988"/>
  <path d="M625 469s5 79 11 91 28 45 28 45 25 18 27 23 22 20 22 20l1 9s35-2 33-14-20-23-20-23-12-30-41-39c0 0-9-13-1-23 0 0 20-49 31-55s-5-40-5-40z" fill="#67647e"/>
  <path d="M625 469s5 79 11 91 28 45 28 45 25 18 27 23 22 20 22 20l1 9s35-2 33-14-20-23-20-23-12-30-41-39c0 0-9-13-1-23 0 0 20-49 31-55s-5-40-5-40z" opacity=".1"/>
  <path d="M689 653l21 43c-3 12-34 8-34 8s-25-33-26-45-17-21-17-21c-24-26-8-56-6-72v-1c1-10 12-41 20-63l10-28s44 2 53 18c5 7 3 15-1 21a49 49 0 01-9 12l-15 36s-26 48-16 52 20 40 20 40z" fill="#67647e"/>
  <path d="M611 264a20 20 0 01-2 9l-1 1-4 7h-11l-1-3-2-30s3-33 14-28c9 3 8 33 7 44z" fill="#f7c4a7"/>
  <path d="M608 274l-4 7h-11l-1-3 16-4z" opacity=".1"/>
  <path d="M609 274v15l-24 7v-4l-2-13s19 0 26-5z" fill="#e6e6f0"/>
  <path d="M609 283v6l-24 7v-4c8-1 19-7 24-9z" opacity=".1"/>
  <path d="M750 308c-5 14 2 20 2 20s-59 4-45-7c9-6 12-19 14-30a102 102 0 001-12s47-1 38 12a63 63 0 00-10 17z" fill="#f7c4a7"/>
  <path d="M760 291c-5 7-7 8-8 12a26 26 0 01-5 1c-11 0-22-3-26-13a102 102 0 001-12s47-1 38 12z" opacity=".1"/>
  <circle cx="745.8" cy="278.7" r="26.9" fill="#f7c4a7"/>
  <path d="M611 283s-26 13-33 10l18 49s1 11 24 17l34 9 43-50-22 6s-11 16-19 10-32-2-32-2-14-38-13-49z" fill="#575988"/>
  <path d="M611 283s-26 13-33 10l18 49s1 11 24 17l34 9 43-50-22 6s-11 16-19 10-32-2-32-2-14-38-13-49z" opacity=".1"/>
  <path d="M710 314s35-10 39 9c0 0-16-8-39 6l-5 3c-20 14-35 36-40 61l-15 64-1 17s-21 4-25-2-1-27 5-34 15-36 15-36l5-17a115 115 0 0123-40l1-1a86 86 0 0132-24c3-2 6-4 5-6z" opacity=".1"/>
  <path d="M710 313s35-10 39 8c0 0-16-7-39 6l-5 4c-20 14-35 36-40 61l-15 64-1 17s-21 4-25-2-1-27 5-34 15-37 15-37l5-17a115 115 0 0123-39l1-2a86 86 0 0132-24c3-1 6-3 5-5z" fill="#e6e6f0"/>
  <path d="M623 445l1 11 9-6s16-59 28-75l3-6 47-45v-10s-24 17-26 21c-1 1-14 8-21 19a237 237 0 00-18 31l-16 35z" opacity=".1"/>
  <path d="M711 313v10l-48 46-3 5c-12 16-28 76-28 76l-9 5v-11l7-25 15-35a237 237 0 0118-31c8-11 20-18 21-19 2-3 20-16 25-20z" fill="#787c9c"/>
  <path d="M737 250c-2-1-5-2-5-5l3-4c4-2 4-7 8-5l8 4a19 19 0 006 1 25 25 0 014 0 12 12 0 013 2 26 26 0 0113 15c1 6 1 13 6 18a17 17 0 012 2 8 8 0 011 3 18 18 0 01-1 11 13 13 0 01-8 7l-4 1c-8 2-13 9-20 12a4 4 0 01-2 1 4 4 0 01-2-1c-2-2-5-5-4-8a16 16 0 011-6 57 57 0 004-10 5 5 0 000-3l-4-3c-2-3-2-6-2-9s3-6 4-9a7 7 0 001-3c0-3-5-6-7-8-3-4-1-1-5-3z" opacity=".1"/>
  <path d="M737 250c-2-1-4-2-4-5l3-4c4-2 3-7 8-5l8 4a19 19 0 006 1l7-2a12 12 0 013 2 26 26 0 0112 15c2 6 1 14 5 18l1 4a8 8 0 011 3 18 18 0 01-1 11 13 13 0 01-8 7l-5 1c-7 2-12 9-19 12a4 4 0 01-2 1 4 4 0 01-2-1c-3-2-5-5-5-8a16 16 0 012-6 57 57 0 003-10 5 5 0 000-3c0-2-2-2-3-3-3-3-3-6-2-9l4-9a7 7 0 001-3c0-4-5-6-7-8-3-4-1-1-6-3z" fill="#b96b6b"/>
  <path d="M709 513c-12-2-27-3-33-2-11 2-26-8-29-9l10-27s44 2 53 17c5 7 3 15-1 21z" opacity=".1"/>
  <path d="M767 344c-3 22-29 55-29 55s-18 19-13 83l1 32s-39-6-50-4-29-10-29-10-7-113 22-137a166 166 0 0111-15c7-9 18-20 27-22a17 17 0 014-1s30-16 37-4c0 0 21 0 19 23z" fill="#575988"/>
  <path d="M647 466s11-5 28-4 50-14 50-14M666 612s1 2-8 4-11 6-11 6" opacity=".1"/>
  <rect x="712.9" y="212.3" width="94" height="94" rx="11.8" ry="11.8" transform="rotate(-180 700 236)" fill="#f28b85"/>
  <path d="M692 250a20 20 0 01-2 9l-4 7-2 5-17 1-1-3c-1-7-3-21 1-31 5-13 7-39 17-33 8 5 8 33 8 45z" fill="#f7c4a7"/>
  <path d="M686 266l-2 5-17 1-1-3c6-3 14-5 20-3z" opacity=".1"/>
  <path d="M686 267v12l-23 12-1-5c-1-4-3-11-5-12 0 0 17-10 29-7z" fill="#e6e6f0"/>
  <path d="M750 374a28 28 0 01-21 7c-42-4-43-19-43-19l-6-14c7-9 18-20 27-22l13 19s31-24 40-2c6 13-2 24-10 31zM686 274v5l-23 12-1-5c10-3 20-9 24-12z" opacity=".1"/>
  <path d="M689 274s-18 13-33 15l31 68s1 15 42 19a28 28 0 0022-7c7-6 15-17 10-30-9-22-40 1-40 1s-32-41-32-66z" fill="#575988"/>
  <rect x="790.7" y="714.4" width="156" height="14" rx="2.7" ry="2.7" fill="#f28b85"/>
  <rect x="773.7" y="700.4" width="156" height="14" rx="2.7" ry="2.7" fill="#f28b85"/>
  <rect x="773.7" y="700.4" width="156" height="14" rx="2.7" ry="2.7" opacity=".1"/>
</svg>