  <svg class="fill-current" width="27" height="27" viewBox="0 0 27 27" fill="none" xmlns="http://www.w3.org/2000/svg">
    <path d="M13.4772 0C6.03046 0 0 6.03046 0 13.4772V26.9543H13.4772C20.9239 26.9543 26.9543 20.9239 26.9543 13.4772C27 6.03046 20.9239 0 13.4772 0ZM20.8325 14.2538C19.1878 15.9898 17.5888 17.7259 15.9442 19.4619C15.1675 20.2843 14.3909 21.1066 13.6142 21.9289C13.5228 22.0203 13.3858 21.9746 13.3401 21.9289L6.16751 14.2081C4.47716 12.3807 4.47716 9.50254 6.16751 7.67513C7.03553 6.76142 8.13198 6.35025 9.22843 6.35025C10.3249 6.35025 11.467 6.80711 12.2893 7.67513L12.8376 8.26904L13.4772 8.95432L14.1168 8.26904L14.665 7.67513C16.3553 5.8934 19.1421 5.8934 20.7868 7.67513C22.5228 9.54822 22.5228 12.4264 20.8325 14.2538Z" />
  </svg>