<svg width="22" height="20" viewBox="0 0 22 20" class="stroke-current" fill="none" xmlns="http://www.w3.org/2000/svg">
  <path d="M6.14001 1.11136C7.41168 1.11136 8.69751 1.60945 9.63413 2.61847L10.2615 3.30562L10.9838 4.09664L11.7234 3.32182L12.3534 2.66182L12.3534 2.66184L12.359 2.65588C14.2766 0.61373 17.4749 0.620859 19.3566 2.65111C21.2799 4.72628 21.2812 8.00085 19.3603 10.0776C17.4983 12.0408 15.6481 14.0196 13.8051 15.9907C12.9191 16.9383 12.0347 17.8842 11.1516 18.8256L11.1326 18.8445L11.1322 18.8449C11.0173 18.9342 10.8941 18.9056 10.8302 18.8381C10.83 18.8379 10.8298 18.8376 10.8296 18.8374L2.64344 10.0516C2.64318 10.0513 2.64291 10.051 2.64265 10.0507C0.72034 7.97575 0.719134 4.70236 2.63903 2.62588C3.61372 1.60375 4.8771 1.11136 6.14001 1.11136Z" stroke-width="2" />
</svg>