<svg width="25" height="25" viewBox="0 0 25 25" class="fill-current" xmlns="http://www.w3.org/2000/svg">
<path d="M12.4999 0C5.59317 0 0 5.59322 0 12.5V25H12.4999C19.4066 25 24.9998 19.4068 24.9998 12.5C25.0421 5.59322 19.4066 0 12.4999 0ZM16.3981 5.88983C16.6524 5.59322 17.2032 5.50847 17.5422 5.72034C17.8812 5.97458 17.9659 6.27119 17.7541 6.5678L15.2117 10H13.2626L16.3981 5.88983ZM14.6185 17.6271V19.2797H9.66092V17.6271C6.7796 16.6102 4.70335 13.8559 4.70335 10.6356H19.5337C19.5761 13.8983 17.4998 16.6102 14.6185 17.6271Z" />
</svg>
