<svg width="19" height="22" viewBox="0 0 19 22" class="stroke-current" fill="none" xmlns="http://www.w3.org/2000/svg">
<path d="M16.1194 14.5809C14.8462 12.9894 13.0955 11.8754 11.1326 11.8754H8.00265C6.03979 11.8754 4.28912 12.9894 3.01592 14.5809C1.74271 16.1724 1 18.2414 1 20.2043C1 20.6287 1.37135 21 1.79576 21H17.3926C17.817 21 18.1883 20.6287 18.1883 20.2043C18.0822 18.2414 17.3395 16.1724 16.1194 14.5809Z" fill="#F28B85" stroke-width="0.4644"/>
<path d="M9.54112 10.9735C12.2997 10.9735 14.5279 8.74536 14.5279 5.98674C14.5279 3.22812 12.2997 1 9.54112 1C6.7825 1 4.55438 3.28117 4.55438 5.98674C4.55438 8.74536 6.7825 10.9735 9.54112 10.9735Z" fill="#F28B85" stroke-width="0.4644"/>
</svg>
