<svg width="25" height="25" viewBox="0 0 25 25" class="fill-current" xmlns="http://www.w3.org/2000/svg">
<path fill-rule="evenodd" clip-rule="evenodd" d="M22.0559 10.1847L12.6691 10.1847C11.8973 7.91898 10.1544 6.54956 7.96329 6.49976C6.48182 6.46241 5.07505 6.99773 4.00442 8.01857C2.82174 9.15146 2.18682 10.7325 2.28642 12.3758C2.47316 15.2267 4.85097 17.5049 7.72675 17.5672C9.12107 17.5921 10.4656 17.0692 11.474 16.1106C11.8848 15.7247 12.2458 15.2641 12.5322 14.7536L13.6402 14.791C13.7273 14.8034 13.8144 14.7661 13.8767 14.7038L14.8353 13.795L15.52 14.5046C15.6445 14.6291 15.8561 14.6416 15.9806 14.5171L16.6902 13.8324L17.3749 14.542C17.4994 14.6665 17.7111 14.6789 17.8356 14.5544L18.7817 13.6581L19.6781 14.6042C19.8025 14.7287 20.0142 14.7412 20.1387 14.6167L20.6118 14.1685L21.0101 14.5918C21.2342 14.8159 21.3712 14.9279 21.7197 14.9279C21.9812 14.9404 22.2302 14.8408 22.4418 14.6789L24.3341 12.8862C24.4586 12.7617 24.471 12.5501 24.3465 12.4256L22.3173 10.2968C22.2426 10.2221 22.1555 10.1847 22.0559 10.1847ZM7.82635 12.0148C7.80145 12.5377 7.58981 13.0232 7.22878 13.3842C6.84285 13.7452 6.35733 13.932 5.83446 13.932C5.32404 13.9195 4.82607 13.6954 4.46504 13.3344C4.10401 12.9485 3.91727 12.463 3.91727 11.9401C3.94217 11.4172 4.15381 10.9317 4.51484 10.5707C4.90077 10.2096 5.38629 10.0229 5.90916 10.0229C6.43203 10.0478 6.91755 10.2594 7.27858 10.6205C7.65206 10.9939 7.83879 11.5044 7.82635 12.0148Z" />
</svg>
