<svg width="20" height="20" viewBox="0 0 20 20" class="fill-current" xmlns="http://www.w3.org/2000/svg">
<path d="M15.0841 10.9987C14.903 12.3735 14.7995 13.0221 14.7995 12.9442C14.7995 13.463 15.0323 13.7224 15.4981 13.7224C16.0931 13.7224 16.6106 13.3852 17.0505 12.7367C17.4903 12.0882 17.8267 11.2581 18.0595 10.2464C18.2924 9.2607 18.3959 8.24903 18.3959 7.2633C18.3959 5.26589 17.7749 3.76135 16.533 2.80156C15.2911 1.84176 13.6352 1.37484 11.4618 1.37484C9.54722 1.37484 7.83959 1.78988 6.33894 2.61997C4.86417 3.45007 3.674 4.6952 2.82018 6.35538C1.96636 8.01556 1.55239 10.0389 1.55239 12.3995C1.55239 14.4747 2.09573 16.0571 3.18241 17.0687C4.26908 18.1064 5.95084 18.6252 8.20181 18.6252C8.77102 18.6252 9.4696 18.5473 10.2975 18.3917C11.1255 18.2361 11.7723 18.0545 12.2122 17.8729L12.0052 19.3515C11.5136 19.5331 10.8409 19.6628 10.0388 19.7925C9.23674 19.9222 8.56404 19.9741 8.0207 19.9741C5.45925 19.9741 3.46701 19.3515 2.09573 18.1323C0.698577 16.9131 0 15.0454 0 12.5032C0 9.90921 0.491591 7.6524 1.47477 5.7847C2.45796 3.91699 3.80336 2.46433 5.56274 1.4786C7.32212 0.492866 9.36611 0 11.643 0C14.2044 0 16.2484 0.570687 17.749 1.738C19.2497 2.90532 20 4.66926 20 7.08171C20 8.76783 19.7413 10.2983 19.2238 11.6213C18.7063 12.9442 18.0078 14.0078 17.1022 14.7601C16.1966 15.5123 15.2135 15.9014 14.1009 15.9014C13.3765 15.9014 12.8072 15.7458 12.3933 15.4345C11.9793 15.1232 11.7464 14.6304 11.6947 13.9818C11.0479 14.6304 10.4269 15.0973 9.80595 15.4345C9.18499 15.7458 8.46054 15.9274 7.6326 15.9274C5.35576 15.9274 4.21733 14.9416 4.21733 12.9961C4.21733 11.8547 4.55369 10.9987 5.22639 10.3761C5.8991 9.75357 6.80466 9.36446 7.96895 9.131C9.13325 8.92348 10.5563 8.81972 12.2639 8.81972L12.3415 8.24903C12.3933 7.96368 12.4191 7.75616 12.4191 7.60052C12.4191 7.21141 12.2639 6.90013 11.9793 6.64073C11.6947 6.40726 11.229 6.27756 10.608 6.27756C10.0647 6.27756 9.65071 6.38132 9.34023 6.56291C9.02975 6.77043 8.7969 6.97795 8.64166 7.23735C8.51229 7.49676 8.43467 7.67834 8.43467 7.85992H5.32988C5.32988 7.15953 5.56274 6.53697 6.02846 5.96628C6.49418 5.39559 7.14101 4.9546 7.96895 4.64332C8.7969 4.33204 9.72833 4.15045 10.7633 4.15045H11.229C12.6779 4.15045 13.7904 4.40986 14.5149 4.92866C15.2393 5.44747 15.6274 6.1738 15.6274 7.13359C15.5757 7.85992 15.4204 9.15694 15.0841 10.9987ZM11.9793 10.869C12.0052 10.7393 12.0052 10.6355 12.0052 10.5837C10.5563 10.5837 9.4696 10.7393 8.71928 11.0506C7.96895 11.3619 7.58085 11.8288 7.58085 12.5032C7.58085 12.9702 7.71022 13.2815 7.99483 13.463C8.27943 13.6446 8.6934 13.7224 9.23674 13.7224C9.8577 13.7224 10.4269 13.5149 10.9702 13.0739C11.4877 12.6329 11.8241 12.0363 11.9276 11.31C11.9276 11.1543 11.9534 10.9987 11.9793 10.869Z" />
</svg>
