<svg style="width:100%" viewBox="0 0 299 299" class="fill-current" xmlns="http://www.w3.org/2000/svg"><path d="M149.25 0C66.78 0 0 66.78 0 149.25v149.24h149.25c82.46 0 149.24-66.78 149.24-149.24C299 66.78 231.71 0 149.25 0zm59.7 216.53H84.49c-23.27 0-42-18.71-42-41.99 0-17.7 11.14-33.39 27.33-39.97v-2.02a49.88 49.88 0 0150.08-50.08 50.6 50.6 0 0139.47 19.22c3.03-.5 6.07-1.01 9.1-1.01a38.17 38.17 0 0137.95 31.87h2.53c23.27 0 41.99 19.23 41.99 42 0 22.76-18.72 41.98-42 41.98z" /><path d="M165.94 140.65a4.9 4.9 0 00-7.08 0l-12.14 12.14-12.15-12.14a4.9 4.9 0 00-7.08 0 4.9 4.9 0 000 7.08l12.14 12.14-12.14 12.14a4.9 4.9 0 000 7.09 4.6 4.6 0 003.54 1.51c1.52 0 2.53-.5 3.54-1.51l12.15-12.15 12.14 12.15a4.6 4.6 0 003.54 1.51 4.6 4.6 0 003.54-1.51 4.9 4.9 0 000-7.09l-12.14-12.14 12.14-12.14a4.9 4.9 0 000-7.08z" /></svg>