<svg style="width: 100%" viewBox="0 0 287 287" class="fill-current stroke-current" xmlns="http://www.w3.org/2000/svg"><path d="M159.8 136.5c-1 0-2 .4-3 1l-29 29-14.7-11.1c-1.9-1.5-4.3-1-5.3.5-1.4 2-1 4.4.5 5.3l18 13.6c1.4 1 3.8 1 5.3-.5l31.6-31.5a3.8 3.8 0 000-5.4c-1-1-2-1.4-3.4-1z" stroke-width=".6" stroke-miterlimit="10"/><path d="M286 143.3v0C286 222 222.1 286 143.3 286H.5V143.3C.5 64.3 64.4.5 143.3.5 222 .5 286.5 64.4 286 143.3zM81.6 207.9h117a39.7 39.7 0 0040.3-39.4 40 40 0 00-39.8-40.3h0-.1 0-.1 0-.1 0-.1 0-.1 0-.1 0-.1 0-.1 0-.1 0-.1 0-.1 0-.1 0-.1 0-.1 0-.1 0-.1 0-.1 0-.1 0-.1 0-.1 0A36 36 0 00152.7 99c-9.3-11.1-23-18-37.6-18a47.3 47.3 0 00-47.6 47.7V130.2A40.5 40.5 0 0041.7 168 39.7 39.7 0 0081.6 208z" /></svg>