<svg width="25" height="25" viewBox="0 0 25 25" class="fill-current" xmlns="http://www.w3.org/2000/svg">
<path d="M6.59896 10.6176C6.17595 10.6176 5.79523 10.7445 5.49913 11.0406C5.20302 11.3367 5.03381 11.7174 5.03381 12.1404C5.03381 12.5634 5.16072 12.9441 5.45683 13.2402C5.75293 13.5363 6.13364 13.7055 6.55666 13.7055C6.97967 13.7055 7.36038 13.5786 7.65649 13.2825C7.9526 12.9864 8.1218 12.6057 8.1218 12.1827C8.1218 11.7597 7.9949 11.379 7.69879 11.0829C7.40268 10.7868 6.97967 10.6176 6.59896 10.6176Z" />
<path d="M12.4789 0C5.58376 0 0 5.58376 0 12.4789V24.9577H12.4789C19.3739 24.9577 24.9577 19.3739 24.9577 12.4789C25 5.58376 19.3739 0 12.4789 0ZM21.2352 12.8596L19.7124 14.2978C19.5431 14.4247 19.3316 14.5093 19.1201 14.5093C18.824 14.5093 18.7394 14.4247 18.5702 14.2555L18.2318 13.9171L17.8511 14.2555C17.7665 14.3401 17.5973 14.3401 17.4704 14.2555L16.7513 13.4941L15.9898 14.2132C15.9052 14.2978 15.736 14.2978 15.6091 14.2132L15.0592 13.6633L14.5093 14.2132C14.4247 14.2978 14.2555 14.2978 14.1286 14.2132L13.5787 13.6633L12.8173 14.3824C12.8596 14.3824 12.8173 14.3824 12.7327 14.3824H11.8443C11.6328 14.8054 11.3367 15.1438 10.9983 15.4822C10.1946 16.2437 9.13706 16.6667 7.99492 16.6244C5.71066 16.5821 3.80711 14.7631 3.6802 12.4789C3.5956 11.1675 4.10322 9.89848 5.03384 9.01015C5.87986 8.20643 7.022 7.78342 8.16413 7.78342C9.89848 7.82572 11.2944 8.92555 11.9289 10.7445H19.4162C19.5008 10.7445 19.5431 10.7868 19.5854 10.8291L21.1929 12.5212C21.3198 12.6058 21.3198 12.775 21.2352 12.8596Z" />
</svg>
