<svg width="25" height="25" viewBox="0 0 25 25" class="fill-current" xmlns="http://www.w3.org/2000/svg">
<path d="M12.4999 0C5.59317 0 0 5.59317 0 12.4999V24.9998H12.4999C19.4066 24.9998 24.9998 19.4066 24.9998 12.4999C25.0421 5.59317 19.4066 0 12.4999 0ZM19.7456 10.5507L18.2625 10.9745V16.2287C18.2625 17.3727 17.3303 18.3473 16.1439 18.3473H7.71179C6.56773 18.3473 5.59317 17.4151 5.59317 16.2287V10.9745L4.11013 10.5931C3.89827 10.5507 3.77115 10.2965 3.81352 10.0846C3.8559 9.87279 4.11013 9.74567 4.32199 9.78804L5.59317 10.0846V9.02534H5.3813C5.16944 9.02534 4.95758 8.85585 4.95758 8.60161C4.95758 8.38975 5.12707 8.17789 5.3813 8.17789H6.01689H8.98297H9.06771C9.36432 6.82197 10.5507 5.8474 11.949 5.8474C13.3473 5.8474 14.5338 6.82197 14.8304 8.17789H17.8812H18.5168C18.7286 8.17789 18.9405 8.34738 18.9405 8.60161C18.9405 8.81347 18.771 9.02534 18.5168 9.02534H18.3049V10.0846L19.5761 9.74567C19.7879 9.7033 20.0422 9.83041 20.0846 10.0423C20.0846 10.2965 19.9574 10.5084 19.7456 10.5507Z" />
<path d="M11.9064 7.07642C11.1861 7.07642 10.5081 7.54251 10.2539 8.22047H10.72H13.1352H13.6013C13.3047 7.54251 12.6691 7.07642 11.9064 7.07642Z" />
</svg>
