<svg width="15" height="15" viewBox="0 0 15 15" class="fill-current" xmlns="http://www.w3.org/2000/svg">
<path d="M7.49993 0C3.3559 0 0 3.35593 0 7.5V15H7.49993C11.644 15 14.9999 11.6441 14.9999 7.5C15.0253 3.35593 11.644 0 7.49993 0ZM7.55078 11.2627H6.02537C6.12706 10.5763 6.20333 10.0932 6.22875 9.73729H7.75416C7.67789 10.4237 7.60162 10.9322 7.55078 11.2627ZM9.66093 6.86441C9.53381 7.11864 9.35584 7.34746 9.17788 7.52542C8.99991 7.70339 8.7711 7.88136 8.49145 8.05932C8.26263 8.21186 8.08467 8.36441 7.98298 8.4661C7.88128 8.5678 7.80501 8.69492 7.77959 8.82203L7.72874 9.20339H6.35587L6.45757 8.5678C6.48299 8.36441 6.58468 8.16102 6.7118 8.00847C6.86434 7.85593 7.06773 7.65254 7.34739 7.42373C7.65247 7.16949 7.88128 6.94068 8.03382 6.76271C8.18636 6.58475 8.26263 6.35593 8.26263 6.07627C8.26263 5.87288 8.18636 5.66949 8.03382 5.51695C7.88128 5.36441 7.67789 5.26271 7.42366 5.26271C7.01688 5.26271 6.73722 5.38983 6.55926 5.64407C6.3813 5.89831 6.30503 6.22881 6.2796 6.61017H4.83046C4.83046 6.12712 4.95758 5.66949 5.18639 5.28814C5.4152 4.90678 5.74571 4.6017 6.17791 4.3983C6.58468 4.19492 7.06773 4.09322 7.5762 4.09322H7.80501C8.23721 4.09322 8.61856 4.16949 8.92364 4.34746C9.22873 4.52542 9.45754 4.75424 9.61008 5.0339C9.76262 5.31356 9.83889 5.61864 9.83889 5.94915C9.86431 6.27966 9.81347 6.58475 9.66093 6.86441Z" />
</svg>
