  <svg class="fill-current" width="27" height="27" viewBox="0 0 27 27" xmlns="http://www.w3.org/2000/svg">
    <path d="M10.8731 11.2386V5.43655C9.45689 5.71067 8.40613 6.98985 8.40613 8.45178C8.40613 8.54315 8.40613 8.68021 8.40613 8.77158L10.8731 11.2386Z" fill="#F18B85" />
    <path d="M13.4772 0C6.03046 0 0 6.03046 0 13.4772V26.9543H13.4772C20.9239 26.9543 26.9543 20.9239 26.9543 13.4772C27 6.03046 20.9239 0 13.4772 0ZM5.98477 7.21827C6.12183 7.1269 6.25888 7.03553 6.44162 7.03553C6.57868 7.03553 6.76142 7.08122 6.85279 7.21827L7.26396 7.62944C7.67513 5.66497 9.41117 4.15736 11.5127 4.15736C11.8782 4.15736 12.1523 4.43147 12.1523 4.79695V6.85279C12.4264 6.76142 12.7462 6.67005 13.066 6.62437C13.7513 5.84772 14.7563 5.39086 15.8528 5.39086C16.9036 5.39086 17.9086 5.84772 18.6396 6.62437C20.5584 6.76142 22.0203 8.36041 22.0203 10.3249C22.0203 10.736 21.9289 11.1472 21.7919 11.5584H17.6802L18.6853 10.8274C18.9594 10.6447 19.0051 10.2335 18.8223 9.95939C18.5939 9.68528 18.2284 9.63959 17.9543 9.82234L16.4467 10.9645V9.73096C16.4467 9.41117 16.1726 9.09137 15.8071 9.09137C15.4873 9.09137 15.1675 9.36548 15.1675 9.73096V10.9645L13.7056 9.86802C13.4315 9.68528 13.066 9.73096 12.8376 10.0051C12.6548 10.2792 12.7005 10.6447 12.9746 10.8731L13.9797 11.6041H12.1066H11.5127H9.45685L7.26396 9.41117L6.44162 8.58883C5.84772 9.50254 5.75635 10.6447 6.2132 11.6041H4.88833C4.47716 10.0964 4.79695 8.36041 5.98477 7.21827ZM17.0863 20.7868V22.066C17.0863 22.3858 16.8122 22.7056 16.4467 22.7056H10.2792C9.95939 22.7056 9.63959 22.4315 9.63959 22.066V20.7868C6.16751 19.4619 3.79188 16.3553 3.51777 12.7919H23.1624C22.934 16.3553 20.5584 19.4619 17.0863 20.7868Z" />
  </svg>