  <svg class="fill-current" width="27" height="27" viewBox="0 0 27 27" xmlns="http://www.w3.org/2000/svg">
    <path d="M13.4772 0C6.03046 0 0 6.03046 0 13.4772V26.9543H13.4772C20.9239 26.9543 26.9543 20.9239 26.9543 13.4772C27 6.03046 20.9239 0 13.4772 0ZM12.9289 4.38579C13.8426 4.38579 14.6193 5.11675 14.6193 6.07614C14.6193 7.03553 13.8426 7.7665 12.9289 7.7665C12.0152 7.7665 11.2386 7.03553 11.2386 6.07614C11.2386 5.11675 11.9695 4.38579 12.9289 4.38579ZM16.9949 21.4721C16.9036 21.9746 16.4467 22.2944 15.9442 22.2944H9.82234C9.3198 22.2944 8.86295 21.9746 8.77157 21.4721L7.26396 15.5787H18.5025L16.9949 21.4721ZM18.2284 14.4822H7.58376C6.80711 14.4822 6.16751 13.8426 6.16751 13.066C6.16751 12.2893 6.80711 11.6497 7.58376 11.6497C7.40102 11.4213 7.30965 11.1472 7.30965 10.8274C7.30965 10.0508 7.94924 9.41117 8.72589 9.41117H9.18274C9.09137 9.22843 9 9.09137 9 8.86294C9 8.17766 9.54822 7.72081 10.1421 7.72081H10.6904C11.1929 8.40609 12.0152 8.86294 12.9289 8.86294C13.8426 8.86294 14.665 8.40609 15.1675 7.72081H15.7157C16.3553 7.72081 16.8579 8.22335 16.8579 8.86294C16.8579 9.09137 16.8122 9.27411 16.6751 9.41117H17.132C17.9086 9.41117 18.5482 10.0508 18.5482 10.8274C18.5482 11.1472 18.4569 11.467 18.2741 11.6497C19.0508 11.6497 19.6904 12.2893 19.6904 13.066C19.6447 13.8883 19.0051 14.4822 18.2284 14.4822Z" />
  </svg>