<?xml version="1.0" standalone="no"?>
<!DOCTYPE svg PUBLIC "-//W3C//DTD SVG 20010904//EN"
 "http://www.w3.org/TR/2001/REC-SVG-20010904/DTD/svg10.dtd">
<svg version="1.0" xmlns="http://www.w3.org/2000/svg"
 width="1024.000000pt" height="1024.000000pt" viewBox="0 0 1024.000000 1024.000000"
 preserveAspectRatio="xMidYMid meet">
<metadata>
Created by potrace 1.11, written by Peter Selinger 2001-2013
</metadata>
<g transform="translate(0.000000,1024.000000) scale(0.100000,-0.100000)"
fill="#000000" stroke="none">
<path d="M4725 10225 c-1824 -145 -3423 -1237 -4213 -2875 -243 -503 -394
-1006 -467 -1550 -44 -328 -45 -347 -45 -3142 l0 -2658 2658 0 c2795 0 2814 1
3142 45 1114 149 2143 659 2940 1455 614 615 1061 1371 1300 2200 260 903 267
1893 19 2795 -238 866 -700 1644 -1355 2285 -793 775 -1805 1268 -2904 1415
-323 44 -753 55 -1075 30z m2394 -2301 c62 -18 141 -86 174 -149 27 -53 28
-128 2 -180 -11 -22 -256 -358 -544 -747 l-524 -708 -395 0 c-250 0 -392 4
-390 10 10 29 1277 1676 1315 1710 83 73 240 101 362 64z m881 -2129 c0 -122
-27 -369 -56 -520 -54 -275 -131 -500 -254 -751 -259 -523 -668 -959 -1179
-1258 -128 -75 -215 -118 -391 -191 l-125 -52 -5 -339 -5 -339 -1012 -3 -1013
-2 -2 341 -3 341 -130 52 c-685 277 -1248 800 -1580 1470 -94 191 -145 321
-198 506 -66 234 -103 456 -114 693 l-6 137 3036 0 3037 0 0 -85z"/>
</g>
</svg>
