<svg width="25" height="25" viewBox="0 0 25 25" class="fill-current" xmlns="http://www.w3.org/2000/svg">
<path d="M10.0847 14.3644C10.0847 14.7034 10.1695 14.9576 10.3813 15.0847C10.5932 15.2118 10.8898 15.2966 11.3135 15.2966C11.7796 15.2966 12.2033 15.1271 12.6271 14.7881C13.0084 14.4491 13.2627 14.0254 13.3474 13.4746C13.3898 13.3474 13.3898 13.2627 13.3898 13.1356C13.3898 13.0508 13.3898 12.9661 13.3898 12.9237C12.3305 12.9237 11.483 13.0508 10.9322 13.2627C10.3813 13.5169 10.0847 13.8983 10.0847 14.3644Z" />
<path d="M12.4999 0C5.59317 0 0 5.59322 0 12.5V25H12.4999C19.4066 25 24.9998 19.4068 24.9998 12.5C25.0421 5.59322 19.4066 0 12.4999 0ZM18.8134 13.7288C18.432 14.7458 17.8812 15.5085 17.2032 16.0593C16.5253 16.6102 15.7626 16.9068 14.9575 16.9068C14.4066 16.9068 13.9829 16.7797 13.6863 16.5678C13.3897 16.3136 13.2202 15.9746 13.1778 15.4661C12.7117 15.9322 12.2456 16.3136 11.7795 16.5678C11.3135 16.822 10.7626 16.9492 10.127 16.9492C8.43212 16.9492 7.5423 16.2288 7.5423 14.7458C7.5423 13.8983 7.79654 13.2627 8.30501 12.7966C8.81348 12.3305 9.49144 12.0339 10.3389 11.8644C11.1863 11.6949 12.288 11.6102 13.5592 11.6102L13.6016 11.1864C13.6439 10.9746 13.6439 10.8051 13.6439 10.7203C13.6439 10.4237 13.5168 10.1695 13.305 10C13.0931 9.83051 12.7541 9.74576 12.288 9.74576C11.9067 9.74576 11.5677 9.83051 11.3135 9.95763C11.0592 10.0847 10.8897 10.2542 10.805 10.4661C10.6779 10.6356 10.6355 10.8051 10.6355 10.9322H8.30501C8.30501 10.4237 8.4745 9.95763 8.81348 9.5339C9.15246 9.11017 9.66093 8.77119 10.2541 8.55932C10.8897 8.30509 11.5677 8.17797 12.3304 8.17797H12.6694C13.7711 8.17797 14.5761 8.38983 15.127 8.77119C15.6778 9.15254 15.9744 9.70339 15.9744 10.4237C15.9744 10.9746 15.8473 11.9492 15.5931 13.3475C15.466 14.3644 15.3812 14.8729 15.3812 14.7881C15.3812 15.1695 15.5507 15.3814 15.8897 15.3814C16.3558 15.3814 16.7371 15.1271 17.0761 14.661C17.4151 14.1525 17.6693 13.5593 17.8388 12.7966C18.0083 12.0339 18.0931 11.3136 18.0931 10.5508C18.0931 9.0678 17.627 7.92373 16.6948 7.20339C15.7626 6.48305 14.4914 6.1017 12.8389 6.1017C11.3982 6.1017 10.127 6.39831 8.98297 7.0339C7.88128 7.66949 6.99146 8.6017 6.35587 9.83051C5.72028 11.0593 5.3813 12.5847 5.3813 14.3644C5.3813 15.9322 5.80503 17.0763 6.61011 17.8814C7.41518 18.6441 8.68636 19.0254 10.3813 19.0254C10.805 19.0254 11.3135 18.9831 11.949 18.8559C12.5846 18.7288 13.0507 18.6017 13.3897 18.4746L13.2202 19.5763C12.8389 19.7034 12.3728 19.8305 11.7372 19.9153C11.144 20 10.6355 20.0424 10.2118 20.0424C8.30501 20.0424 6.82197 19.5763 5.76266 18.6441C4.70335 17.7119 4.19488 16.3136 4.19488 14.4492C4.19488 12.5 4.57623 10.8051 5.29656 9.40678C6.01689 8.00848 7.0762 6.90678 8.38975 6.18644C9.7033 5.4661 11.2287 5.08475 12.9236 5.08475C14.8304 5.08475 16.3558 5.50847 17.4998 6.39831C18.6439 7.24576 19.1947 8.6017 19.1947 10.3814C19.4066 11.6102 19.2371 12.7119 18.8134 13.7288Z" />
</svg>
