  <svg class="fill-current" width="27" height="27" viewBox="0 0 27 27" xmlns="http://www.w3.org/2000/svg">
    <path d="M13.4999 0C6.04062 0 0 6.04068 0 13.5V27H13.4999C20.9591 27 26.9997 20.9593 26.9997 13.5C27.0455 6.04068 20.9591 0 13.4999 0ZM20.9134 19.5864H5.12537C4.75928 19.5864 4.4847 19.3119 4.4847 18.9458C4.4847 18.5797 4.75928 18.3051 5.12537 18.3051H20.8676C21.2337 18.3051 21.5083 18.5797 21.5083 18.9458C21.5083 19.3119 21.2795 19.5864 20.9134 19.5864ZM20.9134 17.2525H5.17114C4.80504 17.2525 4.53047 16.978 4.53047 16.6119C4.53047 16.2458 4.80504 15.9712 5.17114 15.9712H5.72028C5.9491 12.9508 8.23721 10.4797 11.2575 9.79322C11.0287 9.42712 10.8914 9.01525 10.8914 8.55763C10.8914 7.3678 11.8524 6.40678 13.0422 6.40678C14.2321 6.40678 15.1931 7.3678 15.1931 8.55763C15.1931 9.01525 15.0558 9.42712 14.827 9.79322C17.8931 10.4797 20.1812 12.9508 20.3642 15.9712H20.9591C21.3252 15.9712 21.6456 16.2458 21.6456 16.6119C21.6456 16.978 21.2795 17.2525 20.9134 17.2525Z" />
  </svg>