  <svg class="fill-current" width="27" height="27" viewBox="0 0 27 27" xmlns="http://www.w3.org/2000/svg">
    <path d="M14.2538 13.1117V9.59391C14.2538 9.18274 13.8883 8.81726 13.4772 8.81726C13.066 8.81726 12.7005 9.18274 12.7005 9.59391V13.4772C12.7005 13.7056 12.7919 13.934 12.9289 14.0711L15.2132 16.3553C15.533 16.6751 16.0355 16.6751 16.3553 16.3553C16.6751 16.0355 16.6751 15.533 16.3553 15.2132L14.2538 13.1117Z" />
    <path d="M13.4772 0C6.03046 0 0 6.03046 0 13.4772V26.9543H13.4772C20.9239 26.9543 26.9543 20.9239 26.9543 13.4772C27 6.03046 20.9239 0 13.4772 0ZM13.4772 22.8426C8.31472 22.8426 4.11168 18.6396 4.11168 13.4772C4.11168 8.31472 8.31472 4.11168 13.4772 4.11168C18.6396 4.11168 22.8426 8.31472 22.8426 13.4772C22.8426 18.6396 18.6396 22.8426 13.4772 22.8426Z" />
  </svg>