<svg width="25" height="25" viewBox="0 0 25 25" class="fill-current" xmlns="http://www.w3.org/2000/svg">
<path d="M12.4589 0C5.57482 0 0 5.57482 0 12.4589V24.9178H12.4589C19.3429 24.9178 24.9178 19.3429 24.9178 12.4589C24.96 5.57482 19.3429 0 12.4589 0ZM12.121 3.88548C14.3172 3.88548 16.091 5.65929 16.091 7.85543C16.091 10.0516 14.3172 11.8254 12.121 11.8254C9.92487 11.8254 8.15107 10.0516 8.15107 7.85543C8.15107 5.65929 9.92487 3.88548 12.121 3.88548ZM18.3293 19.7653H5.91269C5.57482 19.7653 5.27919 19.4696 5.27919 19.1318C5.27919 17.6114 5.87046 15.9643 6.88406 14.655C7.89766 13.388 9.29137 12.5011 10.854 12.5011H13.3458C14.9084 12.5011 16.3021 13.388 17.3157 14.655C18.3293 15.922 18.9206 17.5691 18.9206 19.1318C18.9206 19.5119 18.6672 19.7653 18.3293 19.7653Z" />
</svg>
